<svg width="152" height="49" viewBox="0 0 152 49" fill="none" xmlns="http://www.w3.org/2000/svg">
<g filter="url(#filter0_d_1003:23)">
<g filter="url(#filter1_d_1003:23)">
<g filter="url(#filter2_d_1003:23)">
<path d="M127.915 33.6996H8.0849C5.83869 33.6996 4 31.8609 4 29.6147V9.0849C4 6.83869 5.83869 5 8.0849 5H127.915C130.161 5 132 6.83869 132 9.0849V29.6147C132 31.8609 130.161 33.6996 127.915 33.6996Z" fill="#F01A26"/>
</g>
</g>
<path d="M16.7178 24.5826H14.1367L15.7535 12.5154H18.124C19.2797 12.5154 20.0986 12.5767 20.5788 12.6972C21.059 12.8177 21.48 13.0206 21.8435 13.3076C22.2453 13.6156 22.5514 13.9983 22.76 14.4574C22.9685 14.9166 23.0738 15.4294 23.0738 15.9957C23.0738 16.6616 22.9532 17.2604 22.7102 17.7923C22.4672 18.3261 22.1075 18.77 21.633 19.1278C21.2427 19.4301 20.7797 19.6463 20.2459 19.7783C19.7121 19.9104 18.9353 19.9754 17.9117 19.9754H17.3243L16.7178 24.5826ZM17.6055 17.9148H17.9997C18.9716 17.9148 19.6317 17.777 19.9819 17.5034C20.3301 17.2279 20.5061 16.7592 20.5061 16.0933C20.5061 15.5327 20.3607 15.1405 20.0699 14.9147C19.779 14.689 19.2031 14.5761 18.3441 14.5761H18.0513L17.6055 17.9148Z" fill="white"/>
<path d="M22.9648 24.5826L24.0459 16.4951H26.4164L26.2079 17.9129C26.5045 17.358 26.8622 16.9371 27.2851 16.652C27.706 16.3669 28.1767 16.2234 28.6971 16.2234C28.8425 16.2234 28.9745 16.2311 29.0912 16.2445C29.208 16.2579 29.3228 16.2789 29.4356 16.3057L28.9745 18.638C28.8004 18.5825 28.6359 18.5423 28.4752 18.5136C28.3164 18.4869 28.1614 18.4716 28.0102 18.4716C27.3788 18.4716 26.8776 18.6935 26.5064 19.1355C26.1352 19.5774 25.8941 20.2433 25.7812 21.1349L25.3373 24.5807H22.9648V24.5826Z" fill="white"/>
<path d="M31.6436 21.0545V21.2362C31.6436 21.7796 31.8177 22.2082 32.1678 22.522C32.5161 22.8358 32.9963 22.9927 33.6047 22.9927C34.0238 22.9927 34.3968 22.9027 34.724 22.7248C35.0512 22.5469 35.365 22.2599 35.6673 21.8638L37.2591 23.1668C36.8573 23.7446 36.3388 24.1789 35.7055 24.4697C35.0722 24.7606 34.3337 24.906 33.4899 24.906C32.2157 24.906 31.1997 24.5424 30.4401 23.8135C29.6806 23.0845 29.2998 22.1164 29.2998 20.9072C29.2998 19.5506 29.738 18.4294 30.6142 17.5474C31.4905 16.6654 32.5964 16.2253 33.9319 16.2253C35.166 16.2253 36.136 16.5927 36.8382 17.3293C37.5423 18.0659 37.8944 19.0819 37.8944 20.3791C37.8944 20.5111 37.8829 20.7235 37.8599 21.0143V21.0564H31.6436V21.0545ZM31.7699 19.6865H35.6405C35.6347 19.1316 35.4874 18.703 35.1966 18.4007C34.9058 18.0984 34.4963 17.9473 33.9644 17.9473C33.4 17.9473 32.9351 18.0927 32.5696 18.3835C32.2023 18.6763 31.9363 19.1106 31.7699 19.6865Z" fill="white"/>
<path d="M39.5166 21.9863C39.796 22.3766 40.1097 22.6808 40.4599 22.9008C40.8081 23.1209 41.1544 23.2299 41.495 23.2299C41.7743 23.2299 42.0001 23.1591 42.1742 23.0195C42.3464 22.8798 42.4344 22.6961 42.4344 22.4723C42.4344 22.1432 42.1168 21.7988 41.4797 21.441C41.2233 21.2975 41.0224 21.1808 40.877 21.087C40.2896 20.7139 39.884 20.3581 39.6582 20.0194C39.4324 19.6827 39.3195 19.2847 39.3195 18.8293C39.3195 18.0774 39.6199 17.4537 40.2207 16.962C40.8215 16.4702 41.5906 16.2234 42.5282 16.2234C43.0983 16.2234 43.636 16.3344 44.1449 16.5563C44.6538 16.7783 45.113 17.1074 45.5282 17.5417L44.12 18.7949C43.8177 18.4716 43.5231 18.2286 43.2361 18.0698C42.9491 17.911 42.664 17.8306 42.3866 17.8306C42.1302 17.8306 41.9197 17.8956 41.759 18.0277C41.5964 18.1597 41.516 18.33 41.516 18.5385C41.516 18.8351 41.9427 19.2177 42.7979 19.6846C43.0428 19.8223 43.2342 19.9295 43.3681 20.006C43.8139 20.2586 44.1468 20.557 44.3649 20.9014C44.583 21.2458 44.6921 21.6438 44.6921 22.1011C44.6921 22.9257 44.3955 23.5954 43.8043 24.112C43.2131 24.6286 42.444 24.8869 41.5007 24.8869C40.8521 24.8869 40.2532 24.7606 39.7041 24.508C39.1531 24.2555 38.6308 23.8671 38.1333 23.3467L39.5166 21.9863Z" fill="white"/>
<path d="M52.9192 19.1106C52.5614 18.8255 52.219 18.6131 51.8937 18.4754C51.5665 18.3376 51.2355 18.2687 50.9007 18.2687C50.1411 18.2687 49.5288 18.5098 49.062 18.9939C48.5952 19.4779 48.3617 20.1151 48.3617 20.9072C48.3617 21.5118 48.5473 21.9882 48.9185 22.3383C49.2897 22.6865 49.7986 22.8606 50.4472 22.8606C50.7935 22.8606 51.1532 22.809 51.5282 22.7038C51.9033 22.6004 52.3165 22.4321 52.7681 22.2006L52.3739 24.4353C52.0334 24.5941 51.6756 24.7127 51.3025 24.7893C50.9275 24.8658 50.5295 24.9041 50.1047 24.9041C48.8305 24.9041 47.8183 24.5444 47.0683 23.825C46.3164 23.1056 45.9414 22.1374 45.9414 20.9225C45.9414 19.5545 46.3834 18.4294 47.2692 17.5474C48.1551 16.6654 49.2839 16.2253 50.6577 16.2253C51.1992 16.2253 51.7043 16.298 52.1692 16.4434C52.6361 16.5888 53.0761 16.8108 53.4894 17.1073L52.9192 19.1106Z" fill="white"/>
<path d="M58.3797 16.2253C59.6692 16.2253 60.6986 16.5907 61.4677 17.3216C62.235 18.0525 62.6196 19.034 62.6196 20.2643C62.6196 21.6113 62.168 22.721 61.263 23.5954C60.358 24.4697 59.1967 24.906 57.777 24.906C56.5199 24.906 55.5155 24.5424 54.7616 23.8173C54.0078 23.0922 53.6309 22.1279 53.6309 20.9244C53.6309 19.5506 54.0767 18.4237 54.9663 17.5455C55.8579 16.6635 56.9944 16.2253 58.3797 16.2253ZM58.3969 18.351C57.6928 18.351 57.1265 18.5863 56.696 19.0551C56.2655 19.5238 56.0512 20.1418 56.0512 20.9053C56.0512 21.4831 56.2119 21.9384 56.5333 22.2733C56.8548 22.6081 57.2948 22.7765 57.8535 22.7765C58.5461 22.7765 59.1106 22.5449 59.5468 22.0838C59.983 21.6227 60.2011 21.02 60.2011 20.2777C60.2011 19.6731 60.0443 19.2043 59.7286 18.8676C59.409 18.5347 58.9671 18.3625 58.3969 18.351Z" fill="white"/>
<path d="M68.0134 24.5827L69.6302 12.5155H76.9199L76.652 14.6431H71.9108L71.5511 17.3542H76.277L75.9996 19.4321H71.2833L70.5964 24.5846H68.0134V24.5827Z" fill="white"/>
<path d="M76.7075 24.5827L77.7885 16.4951H80.1591L79.9506 17.9129C80.2471 17.358 80.6049 16.9371 81.0278 16.652C81.4487 16.3669 81.9194 16.2234 82.4398 16.2234C82.5852 16.2234 82.7172 16.2311 82.8339 16.2445C82.9506 16.2579 83.0654 16.2789 83.1783 16.3057L82.7172 18.638C82.5431 18.5826 82.3786 18.5424 82.2197 18.5137C82.0609 18.4869 81.906 18.4716 81.7548 18.4716C81.1234 18.4716 80.6221 18.6935 80.251 19.1355C79.8798 19.5775 79.6387 20.2433 79.5258 21.1349L79.0819 24.5808H76.7075V24.5827Z" fill="white"/>
<path d="M85.3862 21.0545V21.2363C85.3862 21.7797 85.5603 22.2082 85.9105 22.522C86.2587 22.8358 86.7389 22.9927 87.3474 22.9927C87.7664 22.9927 88.1395 22.9028 88.4647 22.7248C88.7919 22.5469 89.1057 22.2599 89.408 21.8638L90.9999 23.1668C90.5981 23.7446 90.0796 24.1789 89.4463 24.4698C88.813 24.7606 88.0744 24.906 87.2307 24.906C85.9564 24.906 84.9404 24.5425 84.1809 23.8135C83.4213 23.0845 83.0405 22.1164 83.0405 20.9072C83.0405 19.5507 83.4787 18.4295 84.355 17.5474C85.2313 16.6654 86.3372 16.2253 87.6726 16.2253C88.9067 16.2253 89.8768 16.5927 90.5789 17.3293C91.283 18.0659 91.6351 19.0819 91.6351 20.3791C91.6351 20.5111 91.6236 20.7235 91.6006 21.0143V21.0564H85.3862V21.0545ZM85.5106 19.6865H89.3812C89.3755 19.1316 89.2282 18.7031 88.9373 18.4008C88.6465 18.0985 88.2371 17.9473 87.7052 17.9473C87.1407 17.9473 86.6758 18.0927 86.3104 18.3835C85.9449 18.6763 85.679 19.1106 85.5106 19.6865Z" fill="white"/>
<path d="M92.4883 24.5827L93.5521 16.4951H95.9227L94.8589 24.5827H92.4883ZM93.7453 13.3726C93.7453 12.9881 93.8792 12.6628 94.1471 12.4007C94.415 12.1366 94.7441 12.0046 95.1363 12.0046C95.5209 12.0046 95.848 12.1385 96.1159 12.4045C96.3838 12.6704 96.5177 12.9938 96.5177 13.3726C96.5177 13.7515 96.3838 14.0748 96.1159 14.3408C95.848 14.6067 95.5209 14.7406 95.1363 14.7406C94.746 14.7406 94.415 14.6086 94.1471 14.3446C93.8792 14.0805 93.7453 13.7572 93.7453 13.3726Z" fill="white"/>
<path d="M103.587 16.497H105.883L105.013 23.1496C105.007 23.2051 104.996 23.2874 104.978 23.3964C104.737 25.2217 104.401 26.406 103.964 26.9494C103.601 27.3952 103.122 27.7243 102.527 27.9386C101.932 28.1529 101.2 28.26 100.327 28.26C99.1141 28.26 98.1842 28.0228 97.5375 27.5502C96.8889 27.0776 96.5101 26.3582 96.3972 25.3901L98.5746 25.193C98.6702 25.6331 98.8692 25.9602 99.1734 26.1784C99.4776 26.3946 99.889 26.5036 100.409 26.5036C101.18 26.5036 101.737 26.2683 102.08 25.7995C102.424 25.3289 102.621 24.5061 102.671 23.3314C102.363 23.7542 101.997 24.0699 101.573 24.2746C101.148 24.4813 100.65 24.5846 100.082 24.5846C99.0204 24.5846 98.1976 24.2612 97.616 23.6164C97.0324 22.9717 96.7397 22.0609 96.7397 20.8842C96.7397 19.5258 97.1109 18.4103 97.8532 17.5379C98.5956 16.6635 99.5408 16.2273 100.685 16.2273C101.276 16.2273 101.802 16.3459 102.26 16.5812C102.717 16.8185 103.103 17.1667 103.415 17.6278L103.587 16.497ZM103.144 19.9582C103.144 19.3536 102.979 18.881 102.65 18.5404C102.321 18.1999 101.862 18.0296 101.276 18.0296C100.589 18.0296 100.048 18.2707 99.6517 18.7509C99.2557 19.2312 99.0567 19.8932 99.0567 20.7331C99.0567 21.2937 99.2327 21.7452 99.5848 22.0896C99.9368 22.434 100.398 22.6043 100.968 22.6043C101.632 22.6043 102.162 22.3651 102.556 21.8868C102.946 21.4104 103.144 20.7675 103.144 19.9582Z" fill="white"/>
<path d="M106.578 24.5827L108.296 11.8056H110.642L110.014 16.5793C109.976 16.8261 109.934 17.0347 109.894 17.205C109.852 17.3753 109.8 17.5379 109.739 17.691C110.219 17.1858 110.699 16.8147 111.179 16.5774C111.66 16.3421 112.174 16.2235 112.721 16.2235C113.609 16.2235 114.3 16.4377 114.796 16.8663C115.291 17.2949 115.538 17.8918 115.538 18.6553C115.538 18.9576 115.49 19.4474 115.396 20.1228C115.385 20.205 115.377 20.2663 115.371 20.3045L114.801 24.5827H112.431L113.033 20.073C113.051 19.9142 113.062 19.7745 113.072 19.6559C113.081 19.5373 113.085 19.4397 113.085 19.3632C113.085 18.9843 112.976 18.6897 112.758 18.4811C112.54 18.2726 112.234 18.1674 111.836 18.1674C111.143 18.1674 110.605 18.3664 110.223 18.7643C109.84 19.1623 109.593 19.7803 109.482 20.6145L108.954 24.5788H106.578V24.5827Z" fill="white"/>
<path d="M117.057 24.5827L117.903 18.3338H116.336L116.579 16.4951H118.136L118.496 13.8069H120.884L120.507 16.4951H122.099L121.863 18.3338H120.264L119.426 24.5827H117.057Z" fill="white"/>
</g>
<defs>
<filter id="filter0_d_1003:23" x="0" y="5" width="136" height="36.6996" filterUnits="userSpaceOnUse" color-interpolation-filters="sRGB">
<feFlood flood-opacity="0" result="BackgroundImageFix"/>
<feColorMatrix in="SourceAlpha" type="matrix" values="0 0 0 0 0 0 0 0 0 0 0 0 0 0 0 0 0 0 127 0" result="hardAlpha"/>
<feOffset dy="4"/>
<feGaussianBlur stdDeviation="2"/>
<feComposite in2="hardAlpha" operator="out"/>
<feColorMatrix type="matrix" values="0 0 0 0 1 0 0 0 0 1 0 0 0 0 1 0 0 0 0.15 0"/>
<feBlend mode="normal" in2="BackgroundImageFix" result="effect1_dropShadow_1003:23"/>
<feBlend mode="normal" in="SourceGraphic" in2="effect1_dropShadow_1003:23" result="shape"/>
</filter>
<filter id="filter1_d_1003:23" x="0" y="5" width="136" height="36.6996" filterUnits="userSpaceOnUse" color-interpolation-filters="sRGB">
<feFlood flood-opacity="0" result="BackgroundImageFix"/>
<feColorMatrix in="SourceAlpha" type="matrix" values="0 0 0 0 0 0 0 0 0 0 0 0 0 0 0 0 0 0 127 0" result="hardAlpha"/>
<feOffset dy="4"/>
<feGaussianBlur stdDeviation="2"/>
<feComposite in2="hardAlpha" operator="out"/>
<feColorMatrix type="matrix" values="0 0 0 0 0 0 0 0 0 0 0 0 0 0 0 0 0 0 0.25 0"/>
<feBlend mode="normal" in2="BackgroundImageFix" result="effect1_dropShadow_1003:23"/>
<feBlend mode="normal" in="SourceGraphic" in2="effect1_dropShadow_1003:23" result="shape"/>
</filter>
<filter id="filter2_d_1003:23" x="4" y="0" width="148" height="48.6996" filterUnits="userSpaceOnUse" color-interpolation-filters="sRGB">
<feFlood flood-opacity="0" result="BackgroundImageFix"/>
<feColorMatrix in="SourceAlpha" type="matrix" values="0 0 0 0 0 0 0 0 0 0 0 0 0 0 0 0 0 0 127 0" result="hardAlpha"/>
<feOffset dx="10" dy="5"/>
<feGaussianBlur stdDeviation="5"/>
<feComposite in2="hardAlpha" operator="out"/>
<feColorMatrix type="matrix" values="0 0 0 0 0.101961 0 0 0 0 0.101961 0 0 0 0 0.101961 0 0 0 0.15 0"/>
<feBlend mode="normal" in2="BackgroundImageFix" result="effect1_dropShadow_1003:23"/>
<feBlend mode="normal" in="SourceGraphic" in2="effect1_dropShadow_1003:23" result="shape"/>
</filter>
</defs>
</svg>
